<svg xmlns="http://www.w3.org/2000/svg" xmlns:xlink="http://www.w3.org/1999/xlink" viewBox="0 0 214.597 29.66" width="210" height="40" class="logo-neon-pejota"><title id="neon-pejota">Logotipo Neon pejota</title><defs><linearGradient id="a" x1="-2.224" y1="-2.086" x2="2.25" y2="-2.086" gradientUnits="objectBoundingBox" xlink:href="#a"><stop offset="0" stop-color="#00a5f0"></stop><stop offset="1" stop-color="#00d7d7"></stop></linearGradient><linearGradient id="b" x1="-2.955" y1="-2.086" x2="1" y2="-2.086" xlink:href="#b"><stop offset="0" stop-color="#00a5f0"></stop><stop offset="1" stop-color="#00d7d7"></stop></linearGradient><linearGradient id="c" x1=".008" y1="-2.086" x2="3.963" y2="-2.086" xlink:href="#c"><stop offset="0" stop-color="#00a5f0"></stop><stop offset="1" stop-color="#00d7d7"></stop></linearGradient><linearGradient id="d" x1="-1.412" y1="-2.086" x2="3.66" y2="-2.086" xlink:href="#d"><stop offset="0" stop-color="#00a5f0"></stop><stop offset="1" stop-color="#00d7d7"></stop></linearGradient><linearGradient id="e" x1="-6.906" y1="-10.47" x2="12.075" y2="-10.47" xlink:href="#e"><stop offset="0" stop-color="#00a5f0"></stop><stop offset="1" stop-color="#00d7d7"></stop></linearGradient></defs><path d="M755.887.019a14.932 14.932 0 0 0-15 14.829 15 15 0 0 0 30 0 14.932 14.932 0 0 0-15-14.829zm0 22.661a7.833 7.833 0 1 1 7.922-7.832 7.877 7.877 0 0 1-7.922 7.832z" transform="translate(-673.875 -.017)" fill="url(#a)"></path><path d="M1128.978.019a16.9 16.9 0 0 0-16.97 16.781 16.573 16.573 0 0 0 4.965 11.853 3.567 3.567 0 0 0 5 0 3.471 3.471 0 0 0 0-4.948 9.7 9.7 0 0 1 0-13.831 9.974 9.974 0 0 1 13.99 0 9.7 9.7 0 0 1 0 13.831 3.47 3.47 0 0 0 0 4.947 3.567 3.567 0 0 0 5 0 16.573 16.573 0 0 0 4.987-11.852A16.9 16.9 0 0 0 1128.978.019z" transform="translate(-1011.426 -.017)" fill="url(#b)"></path><path d="M16.971.019A16.9 16.9 0 0 0 0 16.8a16.573 16.573 0 0 0 4.964 11.851 3.567 3.567 0 0 0 5 0 3.471 3.471 0 0 0 0-4.948 9.7 9.7 0 0 1 0-13.832 9.975 9.975 0 0 1 13.991 0 9.7 9.7 0 0 1 0 13.832 3.471 3.471 0 0 0 0 4.948 3.567 3.567 0 0 0 5 0A16.573 16.573 0 0 0 33.942 16.8 16.9 16.9 0 0 0 16.971.019z" transform="translate(.001 -.017)" fill="url(#c)"></path><path d="M441.864 9.068a3.47 3.47 0 0 0-.108-4.946 15.032 15.032 0 0 0-25.372 10.707 15.032 15.032 0 0 0 25.372 10.707 3.47 3.47 0 0 0 .108-4.946 3.567 3.567 0 0 0-5-.106 7.987 7.987 0 0 1-11.123-.155 7.769 7.769 0 0 1 0-11 7.987 7.987 0 0 1 11.123-.155 3.566 3.566 0 0 0 5-.107z" transform="translate(-378.722)" fill="url(#d)"></path><ellipse cx="3.536" cy="3.496" rx="3.536" ry="3.496" transform="rotate(-.317 2076.712 -8869.724)" fill="url(#e)"></ellipse></svg>